<?xml version="1.0" encoding="UTF-8"?>
<svg width="123px" height="40px" viewBox="0 0 123 40" version="1.1" xmlns="http://www.w3.org/2000/svg" xmlns:xlink="http://www.w3.org/1999/xlink">
    <!-- Generator: Sketch 54.1 (76490) - https://sketchapp.com -->
    <title>Group 2</title>
    <desc>Created with Sketch.</desc>
    <g id="Manager-App" stroke="none" stroke-width="1" fill="none" fill-rule="evenodd">
        <g id="Supply-Statistics-Calendar" transform="translate(-17.000000, -15.000000)" fill-rule="nonzero">
            <g id="NavBar">
                <g id="Group-2" transform="translate(17.000000, 15.000000)">
                    <g id="Group" transform="translate(0.000000, 0.000000)" fill="#15D1A2">
                        <path d="M12.1118824,5.26250246 L9.42035294,6.10351921 C9.26841176,5.24037044 8.57382353,3.89031724 6.62029412,3.89031724 C5.166,3.89031724 4.21094118,4.84199409 4.21094118,5.88219901 C4.21094118,6.74534778 4.75358824,7.43144039 5.88229412,7.65276059 L8.03117647,8.07326897 C10.8312353,8.62656946 12.3289412,10.4856591 12.3289412,12.6988611 C12.3289412,15.1112512 10.3537059,17.5457734 6.77223529,17.5457734 C2.69152941,17.5457734 0.889941176,14.867799 0.651176471,12.632465 L3.42952941,11.8799764 C3.55976471,13.4292177 4.62335294,14.823535 6.79394118,14.823535 C8.40017647,14.823535 9.29011765,14.0046502 9.29011765,12.8980493 C9.29011765,11.9906365 8.61723529,11.2824118 7.42341176,11.0389596 L5.27452941,10.5963192 C2.82176471,10.0872828 1.23723529,8.47164532 1.23723529,6.10351921 C1.23723529,3.31488473 3.69,1.19021084 6.59858824,1.19021084 C10.332,1.19021084 11.7645882,3.49194089 12.1118824,5.26250246 Z M17.2127647,17.2137931 L14.3258824,17.2137931 L14.3258824,6.32483941 L17.0825294,6.32483941 L17.0825294,7.65276059 C17.6685882,6.59042365 19.0360588,6.01499113 20.2081765,6.01499113 C21.6624706,6.01499113 22.8345882,6.6568197 23.3772353,7.82981675 C24.2237647,6.50189557 25.3524706,6.01499113 26.7633529,6.01499113 C28.7385882,6.01499113 30.627,7.23225222 30.627,10.1536788 L30.627,17.2137931 L27.8269412,17.2137931 L27.8269412,10.7512433 C27.8269412,9.57824631 27.2625882,8.69296552 25.9385294,8.69296552 C24.7012941,8.69296552 23.9632941,9.66677438 23.9632941,10.8397714 L23.9632941,17.2137931 L21.0981176,17.2137931 L21.0981176,10.7512433 C21.0981176,9.57824631 20.5120588,8.69296552 19.2097059,8.69296552 C17.9507647,8.69296552 17.2127647,9.64464236 17.2127647,10.8397714 L17.2127647,17.2137931 Z M32.9061176,14.2481025 C32.9061176,12.3004847 34.317,11.2160158 36.0968824,10.9504315 L38.7232941,10.5520552 C39.3310588,10.4635271 39.5264118,10.1536788 39.5264118,9.77743448 C39.5264118,9.00281379 38.9403529,8.36098522 37.7248235,8.36098522 C36.4658824,8.36098522 35.7712941,9.17986995 35.6844706,10.1315468 L33.1231765,9.57824631 C33.2968235,7.87408079 34.8379412,5.99285911 37.7031176,5.99285911 C41.0892353,5.99285911 42.3481765,7.94047685 42.3481765,10.1315468 L42.3481765,15.4874956 C42.3481765,16.0629281 42.4132941,16.8375488 42.4784118,17.2137931 L39.8302941,17.2137931 C39.7651765,16.9260768 39.7217647,16.3285123 39.7217647,15.9080039 C39.1791176,16.7711527 38.1589412,17.5236414 36.5744118,17.5236414 C34.2952941,17.5236414 32.9061176,15.952268 32.9061176,14.2481025 Z M37.1821765,15.3325714 C38.3977059,15.3325714 39.5264118,14.7350069 39.5264118,12.8095212 L39.5264118,12.3226167 L37.1170588,12.6988611 C36.3790588,12.8095212 35.793,13.2300296 35.793,14.0710463 C35.793,14.7128749 36.2488235,15.3325714 37.1821765,15.3325714 Z M51.7685294,6.28057537 L51.7685294,9.24626601 C51.4429412,9.17986995 51.1607647,9.15773793 50.9002941,9.15773793 C49.4242941,9.15773793 48.1436471,9.88809458 48.1436471,12.2340887 L48.1436471,17.2137931 L45.2567647,17.2137931 L45.2567647,6.32483941 L48.0568235,6.32483941 L48.0568235,7.94047685 C48.708,6.50189557 50.184,6.23631133 51.0956471,6.23631133 C51.3344118,6.23631133 51.5514706,6.25844335 51.7685294,6.28057537 Z M57.7810588,3.07143251 L57.7810588,6.32483941 L59.9299412,6.32483941 L59.9299412,8.93641773 L57.7810588,8.93641773 L57.7810588,13.4956138 C57.7810588,14.4472906 58.2151765,14.7571389 59.04,14.7571389 C59.3872941,14.7571389 59.778,14.7128749 59.9299412,14.6686108 L59.9299412,17.103133 C59.6694706,17.2137931 59.1485294,17.3687172 58.302,17.3687172 C56.2182353,17.3687172 54.9158824,16.1071921 54.9158824,14.0046502 L54.9158824,8.93641773 L52.9840588,8.93641773 L52.9840588,6.32483941 L53.5267059,6.32483941 C54.6554118,6.32483941 55.1763529,5.57235074 55.1763529,4.59854187 L55.1763529,3.07143251 L57.7810588,3.07143251 Z M64.7269412,9.35692611 C64.7269412,12.8980493 67.158,14.5800828 69.5239412,14.5800828 C71.9115882,14.5800828 74.3426471,12.8980493 74.3426471,9.35692611 C74.3426471,5.81580296 71.9115882,4.13376946 69.5239412,4.13376946 C67.158,4.13376946 64.7269412,5.81580296 64.7269412,9.35692611 Z M61.623,9.37905813 C61.623,4.31082562 65.3564118,1.19021084 69.5239412,1.19021084 C73.7131765,1.19021084 77.4465882,4.31082562 77.4465882,9.37905813 C77.4465882,14.4251586 73.7131765,17.5457734 69.5239412,17.5457734 C65.3564118,17.5457734 61.623,14.4251586 61.623,9.37905813 Z M94.2903529,2.73945222 C94.2903529,1.72137931 95.0717647,0.902494581 96.0485294,0.902494581 C97.047,0.902494581 97.8501176,1.72137931 97.8501176,2.73945222 C97.8501176,3.7353931 97.047,4.53214581 96.0485294,4.53214581 C95.0717647,4.53214581 94.2903529,3.7353931 94.2903529,2.73945222 Z M87.4095882,6.32483941 L87.4095882,5.04118227 C87.4095882,2.6066601 88.929,1.0352867 91.2732353,1.0352867 C91.881,1.0352867 92.4670588,1.1459468 92.7058235,1.2566069 L92.7058235,3.7353931 C92.5538824,3.69112906 92.2717059,3.624733 91.7941765,3.624733 C91.1647059,3.624733 90.2964706,3.91244926 90.2964706,5.12971034 L90.2964706,6.32483941 L97.5028235,6.32483941 L97.5028235,17.2137931 L94.6159412,17.2137931 L94.6159412,8.84788966 L90.2964706,8.84788966 L90.2964706,17.2137931 L87.4095882,17.2137931 L87.4095882,8.84788966 L83.2854706,8.84788966 L83.2854706,17.2137931 L80.3768824,17.2137931 L80.3768824,8.84788966 L78.597,8.84788966 L78.597,6.32483941 L80.3768824,6.32483941 L80.3768824,5.08544631 C80.3768824,2.62879212 81.8962941,1.0352867 84.2622353,1.0352867 C84.87,1.0352867 85.4560588,1.1459468 85.6948235,1.2566069 L85.6948235,3.7353931 C85.5428824,3.69112906 85.2607059,3.624733 84.7831765,3.624733 C84.1537059,3.624733 83.2854706,3.91244926 83.2854706,5.12971034 L83.2854706,6.32483941 L87.4095882,6.32483941 Z M105.403765,8.71509754 C103.927765,8.71509754 102.690529,9.7995665 102.690529,11.7693163 C102.690529,13.739066 103.949471,14.845667 105.425471,14.845667 C106.901471,14.845667 107.639471,13.8497261 107.878235,13.0087094 L110.417824,13.8718581 C109.940294,15.6866837 108.268941,17.5457734 105.425471,17.5457734 C102.278118,17.5457734 99.8036471,15.1112512 99.8036471,11.7693163 C99.8036471,8.40524926 102.234706,5.99285911 105.338647,5.99285911 C108.247235,5.99285911 109.896882,7.82981675 110.352706,9.66677438 L107.769706,10.5520552 C107.509235,9.64464236 106.836353,8.71509754 105.403765,8.71509754 Z M114.541941,10.5299232 L119.317235,10.5299232 C119.273824,9.44545419 118.579235,8.38311724 116.929588,8.38311724 C115.431882,8.38311724 114.607059,9.53398227 114.541941,10.5299232 Z M119.599412,13.3628217 L122.008765,14.0931783 C121.466118,15.9744 119.773059,17.5457734 117.146647,17.5457734 C114.216353,17.5457734 111.633353,15.3989675 111.633353,11.7250522 C111.633353,8.25032512 114.151235,5.99285911 116.886176,5.99285911 C120.185471,5.99285911 122.160706,8.13966502 122.160706,11.6365241 C122.160706,12.0570325 122.117294,12.4996729 122.117294,12.5439369 L114.476824,12.5439369 C114.541941,13.9825182 115.735765,15.0227232 117.168353,15.0227232 C118.514118,15.0227232 119.252118,14.3366305 119.599412,13.3628217 Z" id="SmartOfce"></path>
                    </g>
                    <g id="baseline-work_outline-24px" transform="translate(1.098214, 26.000000)" fill="#288070">
                        <path d="M7.85927235,2.32968628 L7.85927235,1.38612175 L5.98098836,1.38612175 L5.98098836,2.32968628 L7.85927235,2.32968628 Z M2.48798593,4.02619485 L2.48798593,9.42835443 L11.3326681,9.42835443 L11.3326681,4.02619485 L2.48798593,4.02619485 Z M11.7547269,2.32968628 C12.4239916,2.32968628 12.9606092,2.84804148 12.9606092,3.49452943 L12.9606092,9.90116671 C12.9606092,10.5476547 12.4239916,11.0660099 11.7547269,11.0660099 L2.10766807,11.0660099 C1.43840336,11.0660099 0.901785714,10.5476547 0.901785714,9.90116671 L0.907815126,3.49452943 C0.907815126,2.84804148 1.43840336,2.32968628 2.10766807,2.32968628 L4.51943277,2.32968628 L4.51943277,1.16484314 C4.51943277,0.518355198 5.05605042,-1.77635684e-15 5.72531513,-1.77635684e-15 L8.13707983,-1.77635684e-15 C8.80634454,-1.77635684e-15 9.34296218,0.518355198 9.34296218,1.16484314 L9.34296218,2.32968628 L11.7547269,2.32968628 Z" id="Shape"></path>
                        <path d="M33.6515924,10.461068 L31.6835924,10.461068 L31.6835924,3.12799212 L28.7315924,10.461068 L27.0674748,10.461068 L24.1154748,3.18701084 L24.1154748,10.461068 L22.2053571,10.461068 L22.2053571,1.77635684e-15 L24.8390042,1.77635684e-15 L27.9212395,7.55439606 L30.9311218,1.77635684e-15 L33.6515924,1.77635684e-15 L33.6515924,10.461068 Z M35.4170042,8.48394089 C35.4170042,7.18552906 36.3575924,6.46254975 37.5441807,6.2854936 L39.2951218,6.01990936 C39.7002983,5.96089064 39.8305336,5.75432512 39.8305336,5.50349557 C39.8305336,4.98708177 39.4398277,4.55919606 38.6294748,4.55919606 C37.7901807,4.55919606 37.3271218,5.10511921 37.2692395,5.73957044 L35.5617101,5.37070345 C35.6774748,4.2345931 36.7048866,2.98044532 38.6150042,2.98044532 C40.872416,2.98044532 41.7117101,4.27885714 41.7117101,5.73957044 L41.7117101,9.31020296 C41.7117101,9.69382463 41.7551218,10.2102384 41.7985336,10.461068 L40.0331218,10.461068 C39.9897101,10.2692571 39.9607689,9.87088079 39.9607689,9.59054187 C39.5990042,10.1659744 38.9188866,10.6676335 37.8625336,10.6676335 C36.3431218,10.6676335 35.4170042,9.62005123 35.4170042,8.48394089 Z M38.2677101,9.2069202 C39.078063,9.2069202 39.8305336,8.80854384 39.8305336,7.5248867 L39.8305336,7.20028374 L38.2242983,7.4511133 C37.7322983,7.5248867 37.3415924,7.80522562 37.3415924,8.36590345 C37.3415924,8.79378916 37.6454748,9.2069202 38.2677101,9.2069202 Z M45.5753571,6.2854936 L45.5753571,10.461068 L43.6507689,10.461068 L43.6507689,3.20176552 L45.5174748,3.20176552 L45.5174748,4.10180099 C45.9515924,3.34931232 46.8053571,3.00995468 47.5722983,3.00995468 C49.3377101,3.00995468 50.148063,4.29361182 50.148063,5.88711724 L50.148063,10.461068 L48.2234748,10.461068 L48.2234748,6.22647488 C48.2234748,5.41496749 47.8327689,4.78051626 46.9066513,4.78051626 C46.0673571,4.78051626 45.5753571,5.44447685 45.5753571,6.2854936 Z M51.6674748,8.48394089 C51.6674748,7.18552906 52.608063,6.46254975 53.7946513,6.2854936 L55.5455924,6.01990936 C55.9507689,5.96089064 56.0810042,5.75432512 56.0810042,5.50349557 C56.0810042,4.98708177 55.6902983,4.55919606 54.8799454,4.55919606 C54.0406513,4.55919606 53.5775924,5.10511921 53.5197101,5.73957044 L51.8121807,5.37070345 C51.9279454,4.2345931 52.9553571,2.98044532 54.8654748,2.98044532 C57.1228866,2.98044532 57.9621807,4.27885714 57.9621807,5.73957044 L57.9621807,9.31020296 C57.9621807,9.69382463 58.0055924,10.2102384 58.0490042,10.461068 L56.2835924,10.461068 C56.2401807,10.2692571 56.2112395,9.87088079 56.2112395,9.59054187 C55.8494748,10.1659744 55.1693571,10.6676335 54.1130042,10.6676335 C52.5935924,10.6676335 51.6674748,9.62005123 51.6674748,8.48394089 Z M54.5181807,9.2069202 C55.3285336,9.2069202 56.0810042,8.80854384 56.0810042,7.5248867 L56.0810042,7.20028374 L54.4747689,7.4511133 C53.9827689,7.5248867 53.592063,7.80522562 53.592063,8.36590345 C53.592063,8.79378916 53.8959454,9.2069202 54.5181807,9.2069202 Z M59.3947689,10.8594443 L61.1312395,10.3872946 C61.2614748,11.1840473 61.8837101,11.7594798 62.7953571,11.7594798 C64.0108866,11.7594798 64.6910042,11.1397833 64.6910042,9.73808867 L64.6910042,9.2069202 C64.4015924,9.67906995 63.7359454,10.136465 62.7085336,10.136465 C60.8128866,10.136465 59.3947689,8.64624236 59.3947689,6.61009655 C59.3947689,4.69198818 60.7550042,3.0689734 62.7085336,3.0689734 C63.8372395,3.0689734 64.488416,3.57063251 64.734416,4.05753695 L64.734416,3.20176552 L66.5866513,3.20176552 L66.5866513,9.67906995 C66.5866513,11.6709517 65.5302983,13.4857773 62.8532395,13.4857773 C60.8997101,13.4857773 59.5973571,12.2463842 59.3947689,10.8594443 Z M63.0413571,8.45443153 C64.0253571,8.45443153 64.7199454,7.73145222 64.7199454,6.61009655 C64.7199454,5.48874089 63.9674748,4.78051626 63.0413571,4.78051626 C62.0862983,4.78051626 61.3338277,5.48874089 61.3338277,6.61009655 C61.3338277,7.7462069 62.0428866,8.45443153 63.0413571,8.45443153 Z M69.9438277,6.00515468 L73.1273571,6.00515468 C73.098416,5.28217537 72.6353571,4.57395074 71.5355924,4.57395074 C70.5371218,4.57395074 69.9872395,5.34119409 69.9438277,6.00515468 Z M73.3154748,7.89375369 L74.9217101,8.38065813 C74.5599454,9.63480591 73.4312395,10.6823882 71.6802983,10.6823882 C69.7267689,10.6823882 68.0047689,9.25118424 68.0047689,6.80190739 C68.0047689,4.48542266 69.6833571,2.98044532 71.5066513,2.98044532 C73.7061807,2.98044532 75.0230042,4.41164926 75.0230042,6.74288867 C75.0230042,7.02322759 74.994063,7.31832118 74.994063,7.34783054 L69.900416,7.34783054 C69.9438277,8.30688473 70.7397101,9.00035468 71.6947689,9.00035468 C72.5919454,9.00035468 73.0839454,8.54295961 73.3154748,7.89375369 Z M80.8835924,3.17225616 L80.8835924,5.14938325 C80.6665336,5.10511921 80.478416,5.09036453 80.3047689,5.09036453 C79.3207689,5.09036453 78.4670042,5.57726897 78.4670042,7.14126502 L78.4670042,10.461068 L76.542416,10.461068 L76.542416,3.20176552 L78.4091218,3.20176552 L78.4091218,4.27885714 C78.8432395,3.31980296 79.8272395,3.1427468 80.4350042,3.1427468 C80.5941807,3.1427468 80.7388866,3.15750148 80.8835924,3.17225616 Z" id="Manager"></path>
                    </g>
                </g>
            </g>
        </g>
    </g>
</svg>