<?xml version="1.0" encoding="UTF-8"?>
<svg width="102px" height="15px" viewBox="0 0 102 15" version="1.1" xmlns="http://www.w3.org/2000/svg" xmlns:xlink="http://www.w3.org/1999/xlink">
    <!-- Generator: Sketch 53.2 (72643) - https://sketchapp.com -->
    <title>SmartOfce</title>
    <desc>Created with Sketch.</desc>
    <g id="Symbols" stroke="none" stroke-width="1" fill="none" fill-rule="evenodd">
        <g id="Toolbar-Main" transform="translate(-22.000000, -23.000000)" fill="#15D1A2" fill-rule="nonzero">
            <g id="Group-4">
                <g id="Group" transform="translate(22.000000, 23.000000)">
                    <path d="M10.044,4.28 L7.812,4.964 C7.686,4.262 7.11,3.164 5.49,3.164 C4.284,3.164 3.492,3.938 3.492,4.784 C3.492,5.486 3.942,6.044 4.878,6.224 L6.66,6.566 C8.982,7.016 10.224,8.528 10.224,10.328 C10.224,12.29 8.586,14.27 5.616,14.27 C2.232,14.27 0.738,12.092 0.54,10.274 L2.844,9.662 C2.952,10.922 3.834,12.056 5.634,12.056 C6.966,12.056 7.704,11.39 7.704,10.49 C7.704,9.752 7.146,9.176 6.156,8.978 L4.374,8.618 C2.34,8.204 1.026,6.89 1.026,4.964 C1.026,2.696 3.06,0.968 5.472,0.968 C8.568,0.968 9.756,2.84 10.044,4.28 Z M14.274,14 L11.88,14 L11.88,5.144 L14.166,5.144 L14.166,6.224 C14.652,5.36 15.786,4.892 16.758,4.892 C17.964,4.892 18.936,5.414 19.386,6.368 C20.088,5.288 21.024,4.892 22.194,4.892 C23.832,4.892 25.398,5.882 25.398,8.258 L25.398,14 L23.076,14 L23.076,8.744 C23.076,7.79 22.608,7.07 21.51,7.07 C20.484,7.07 19.872,7.862 19.872,8.816 L19.872,14 L17.496,14 L17.496,8.744 C17.496,7.79 17.01,7.07 15.93,7.07 C14.886,7.07 14.274,7.844 14.274,8.816 L14.274,14 Z M27.288,11.588 C27.288,10.004 28.458,9.122 29.934,8.906 L32.112,8.582 C32.616,8.51 32.778,8.258 32.778,7.952 C32.778,7.322 32.292,6.8 31.284,6.8 C30.24,6.8 29.664,7.466 29.592,8.24 L27.468,7.79 C27.612,6.404 28.89,4.874 31.266,4.874 C34.074,4.874 35.118,6.458 35.118,8.24 L35.118,12.596 C35.118,13.064 35.172,13.694 35.226,14 L33.03,14 C32.976,13.766 32.94,13.28 32.94,12.938 C32.49,13.64 31.644,14.252 30.33,14.252 C28.44,14.252 27.288,12.974 27.288,11.588 Z M30.834,12.47 C31.842,12.47 32.778,11.984 32.778,10.418 L32.778,10.022 L30.78,10.328 C30.168,10.418 29.682,10.76 29.682,11.444 C29.682,11.966 30.06,12.47 30.834,12.47 Z M42.93,5.108 L42.93,7.52 C42.66,7.466 42.426,7.448 42.21,7.448 C40.986,7.448 39.924,8.042 39.924,9.95 L39.924,14 L37.53,14 L37.53,5.144 L39.852,5.144 L39.852,6.458 C40.392,5.288 41.616,5.072 42.372,5.072 C42.57,5.072 42.75,5.09 42.93,5.108 Z M47.916,2.498 L47.916,5.144 L49.698,5.144 L49.698,7.268 L47.916,7.268 L47.916,10.976 C47.916,11.75 48.276,12.002 48.96,12.002 C49.248,12.002 49.572,11.966 49.698,11.93 L49.698,13.91 C49.482,14 49.05,14.126 48.348,14.126 C46.62,14.126 45.54,13.1 45.54,11.39 L45.54,7.268 L43.938,7.268 L43.938,5.144 L44.388,5.144 C45.324,5.144 45.756,4.532 45.756,3.74 L45.756,2.498 L47.916,2.498 Z M53.676,7.61 C53.676,10.49 55.692,11.858 57.654,11.858 C59.634,11.858 61.65,10.49 61.65,7.61 C61.65,4.73 59.634,3.362 57.654,3.362 C55.692,3.362 53.676,4.73 53.676,7.61 Z M51.102,7.628 C51.102,3.506 54.198,0.968 57.654,0.968 C61.128,0.968 64.224,3.506 64.224,7.628 C64.224,11.732 61.128,14.27 57.654,14.27 C54.198,14.27 51.102,11.732 51.102,7.628 Z M78.192,2.228 C78.192,1.4 78.84,0.734 79.65,0.734 C80.478,0.734 81.144,1.4 81.144,2.228 C81.144,3.038 80.478,3.686 79.65,3.686 C78.84,3.686 78.192,3.038 78.192,2.228 Z M72.486,5.144 L72.486,4.1 C72.486,2.12 73.746,0.842 75.69,0.842 C76.194,0.842 76.68,0.932 76.878,1.022 L76.878,3.038 C76.752,3.002 76.518,2.948 76.122,2.948 C75.6,2.948 74.88,3.182 74.88,4.172 L74.88,5.144 L80.856,5.144 L80.856,14 L78.462,14 L78.462,7.196 L74.88,7.196 L74.88,14 L72.486,14 L72.486,7.196 L69.066,7.196 L69.066,14 L66.654,14 L66.654,7.196 L65.178,7.196 L65.178,5.144 L66.654,5.144 L66.654,4.136 C66.654,2.138 67.914,0.842 69.876,0.842 C70.38,0.842 70.866,0.932 71.064,1.022 L71.064,3.038 C70.938,3.002 70.704,2.948 70.308,2.948 C69.786,2.948 69.066,3.182 69.066,4.172 L69.066,5.144 L72.486,5.144 Z M87.408,7.088 C86.184,7.088 85.158,7.97 85.158,9.572 C85.158,11.174 86.202,12.074 87.426,12.074 C88.65,12.074 89.262,11.264 89.46,10.58 L91.566,11.282 C91.17,12.758 89.784,14.27 87.426,14.27 C84.816,14.27 82.764,12.29 82.764,9.572 C82.764,6.836 84.78,4.874 87.354,4.874 C89.766,4.874 91.134,6.368 91.512,7.862 L89.37,8.582 C89.154,7.844 88.596,7.088 87.408,7.088 Z M94.986,8.564 L98.946,8.564 C98.91,7.682 98.334,6.818 96.966,6.818 C95.724,6.818 95.04,7.754 94.986,8.564 Z M99.18,10.868 L101.178,11.462 C100.728,12.992 99.324,14.27 97.146,14.27 C94.716,14.27 92.574,12.524 92.574,9.536 C92.574,6.71 94.662,4.874 96.93,4.874 C99.666,4.874 101.304,6.62 101.304,9.464 C101.304,9.806 101.268,10.166 101.268,10.202 L94.932,10.202 C94.986,11.372 95.976,12.218 97.164,12.218 C98.28,12.218 98.892,11.66 99.18,10.868 Z" id="SmartOfce"></path>
                </g>
            </g>
        </g>
    </g>
</svg>